<svg xmlns="http://www.w3.org/2000/svg" width="1221.533" height="74.024" viewBox="0 0 1221.533 74.024">  
  <g id="svgGroup" stroke-linecap="round" fill-rule="evenodd" font-size="9pt" stroke="#000" stroke-width="0.25mm" fill="none" style="stroke:#000;stroke-width:0.25mm;fill:none">
<path d="M 11.67 74.024 L 11.67 46.436 L 0 46.436 Q 0.195 44.678 0.952 43.164 A 9.775 9.775 0 0 1 2.821 40.563 A 9.33 9.33 0 0 1 2.856 40.527 A 8.967 8.967 0 0 1 5.469 38.745 A 7.413 7.413 0 0 1 8.545 38.086 L 11.67 38.086 L 11.67 0 L 23.291 0 L 23.291 38.086 L 49.609 38.086 L 49.609 0 L 61.328 0 L 61.328 74.024 L 49.609 74.024 L 49.609 46.436 L 23.291 46.436 L 23.291 74.024 L 11.67 74.024 Z" id="l0"/>
<path d="M 78.516 74.024 L 81.689 55.42 L 70.41 55.42 Q 70.605 53.711 71.362 52.197 Q 72.119 50.684 73.267 49.536 A 8.738 8.738 0 0 1 75.879 47.73 A 7.413 7.413 0 0 1 78.955 47.07 L 83.154 47.07 L 89.648 9.229 A 11.562 11.562 0 0 1 90.942 5.518 A 12.615 12.615 0 0 1 92.413 3.399 A 11.029 11.029 0 0 1 93.188 2.588 A 9.963 9.963 0 0 1 96.045 0.684 A 8.121 8.121 0 0 1 98.096 0.081 A 7.214 7.214 0 0 1 99.17 0 L 111.035 0 Q 112.549 0 114.111 0.684 Q 115.674 1.367 116.992 2.612 A 12.26 12.26 0 0 1 119.112 5.282 A 13.828 13.828 0 0 1 119.263 5.542 A 11.154 11.154 0 0 1 120.475 8.833 A 12.794 12.794 0 0 1 120.557 9.277 L 131.689 74.024 L 120.02 74.024 L 116.992 55.42 L 93.018 55.42 L 90.039 74.024 L 78.516 74.024 Z M 94.336 47.07 L 115.674 47.07 L 109.424 8.252 L 100.488 8.252 A 2087.923 2087.923 0 0 0 97.412 27.466 A 6716.588 6716.588 0 0 1 94.336 47.07 Z" id="l1"/>
<path d="M 146.68 74.024 L 146.68 48.34 L 132.617 48.34 Q 132.813 46.631 133.569 45.117 Q 134.326 43.604 135.474 42.456 A 8.738 8.738 0 0 1 138.086 40.65 A 7.413 7.413 0 0 1 141.162 39.99 L 146.631 39.99 L 146.631 0 L 183.008 0 A 7.18 7.18 0 0 1 186.597 0.952 A 9.41 9.41 0 0 1 189.133 3.068 A 11.106 11.106 0 0 1 189.551 3.589 Q 190.82 5.274 191.553 7.544 Q 192.285 9.815 192.285 12.402 L 192.285 36.035 A 16.118 16.118 0 0 1 191.97 39.274 A 13.947 13.947 0 0 1 191.553 40.845 A 14.165 14.165 0 0 1 190.36 43.53 A 12.217 12.217 0 0 1 189.551 44.751 A 10.065 10.065 0 0 1 187.657 46.684 A 8.973 8.973 0 0 1 186.597 47.388 A 7.18 7.18 0 0 1 183.008 48.34 L 158.398 48.34 L 158.398 74.024 L 146.68 74.024 Z M 158.35 39.99 L 180.908 39.99 L 180.908 8.252 L 158.35 8.252 L 158.35 39.99 Z" id="l2"/>
<path d="M 210.4 74.024 L 210.4 48.34 L 196.338 48.34 Q 196.533 46.631 197.29 45.117 Q 198.047 43.604 199.194 42.456 A 8.738 8.738 0 0 1 201.807 40.65 A 7.413 7.413 0 0 1 204.883 39.99 L 210.352 39.99 L 210.352 0 L 246.729 0 A 7.18 7.18 0 0 1 250.317 0.952 A 9.41 9.41 0 0 1 252.854 3.068 A 11.106 11.106 0 0 1 253.271 3.589 Q 254.541 5.274 255.273 7.544 Q 256.006 9.815 256.006 12.402 L 256.006 36.035 A 16.118 16.118 0 0 1 255.69 39.274 A 13.947 13.947 0 0 1 255.273 40.845 A 14.165 14.165 0 0 1 254.081 43.53 A 12.217 12.217 0 0 1 253.271 44.751 A 10.065 10.065 0 0 1 251.378 46.684 A 8.973 8.973 0 0 1 250.317 47.388 A 7.18 7.18 0 0 1 246.729 48.34 L 222.119 48.34 L 222.119 74.024 L 210.4 74.024 Z M 222.07 39.99 L 244.629 39.99 L 244.629 8.252 L 222.07 8.252 L 222.07 39.99 Z" id="l3"/>
<path d="M 284.814 65.674 L 308.252 65.674 L 308.252 43.848 L 293.408 52.832 A 7.02 7.02 0 0 1 292.353 53.39 Q 291.821 53.619 291.198 53.8 A 12.132 12.132 0 0 1 290.991 53.858 A 10.763 10.763 0 0 1 289.837 54.107 Q 289.21 54.205 288.643 54.205 A 6.335 6.335 0 0 1 288.379 54.199 L 282.861 54.199 A 7.53 7.53 0 0 1 279.15 53.223 A 10.286 10.286 0 0 1 276.095 50.612 A 11.629 11.629 0 0 1 276.074 50.586 A 12.549 12.549 0 0 1 274.457 47.897 A 15.152 15.152 0 0 1 273.975 46.68 A 14.34 14.34 0 0 1 273.198 42.29 A 16.286 16.286 0 0 1 273.193 41.895 L 273.193 8.35 L 262.842 8.35 Q 263.037 6.641 263.794 5.127 Q 264.551 3.613 265.747 2.466 Q 266.943 1.319 268.506 0.659 A 8.518 8.518 0 0 1 271.65 0.003 A 9.781 9.781 0 0 1 271.875 0 L 284.912 0 L 284.912 45.801 L 289.453 45.801 L 308.252 34.229 L 308.252 0 L 319.873 0 L 319.873 61.768 A 15.131 15.131 0 0 1 319.322 65.885 A 14.08 14.08 0 0 1 319.141 66.48 Q 318.408 68.701 317.163 70.386 A 9.712 9.712 0 0 1 314.837 72.654 A 9.13 9.13 0 0 1 314.209 73.047 A 7.173 7.173 0 0 1 310.596 74.024 L 276.27 74.024 Q 276.465 72.315 277.222 70.801 Q 277.979 69.287 279.126 68.14 A 8.738 8.738 0 0 1 281.738 66.333 A 7.413 7.413 0 0 1 284.814 65.674 Z" id="l4"/>
<path d="M 372.754 74.024 L 372.754 46.436 L 360.449 46.436 A 9.196 9.196 0 0 1 361.328 43.164 A 9.354 9.354 0 0 1 363.208 40.527 A 8.868 8.868 0 0 1 365.845 38.745 A 7.695 7.695 0 0 1 368.994 38.086 L 372.754 38.086 L 372.754 0 L 407.031 0 A 7.962 7.962 0 0 1 410.791 0.952 A 10.347 10.347 0 0 1 413.725 3.28 A 11.914 11.914 0 0 1 413.989 3.589 Q 415.381 5.274 416.235 7.544 A 13.562 13.562 0 0 1 417.085 12 A 15.455 15.455 0 0 1 417.09 12.402 L 417.09 30.664 A 13.635 13.635 0 0 1 415.859 36.447 A 13.358 13.358 0 0 1 415.479 37.207 A 12.229 12.229 0 0 1 410.887 41.936 A 14.454 14.454 0 0 1 410.791 41.992 Q 412.939 42.774 414.502 44.19 A 13.399 13.399 0 0 1 416.805 46.89 A 12.447 12.447 0 0 1 417.065 47.315 Q 418.066 49.024 418.555 50.879 A 15.241 15.241 0 0 1 418.95 52.905 A 12.264 12.264 0 0 1 419.043 54.395 L 419.043 61.719 A 15.676 15.676 0 0 1 418.578 65.579 A 14.304 14.304 0 0 1 418.311 66.504 A 13.62 13.62 0 0 1 417.209 69.024 A 11.504 11.504 0 0 1 416.284 70.41 A 10.711 10.711 0 0 1 414.222 72.444 A 9.696 9.696 0 0 1 413.306 73.047 A 7.042 7.042 0 0 1 409.717 74.024 L 372.754 74.024 Z M 384.326 38.086 L 405.518 38.086 L 405.518 8.35 L 384.326 8.35 L 384.326 38.086 Z M 384.326 65.674 L 407.373 65.674 L 407.373 46.436 L 384.326 46.436 L 384.326 65.674 Z" id="l5"/>
<path d="M 442.92 74.024 L 442.92 65.674 L 458.398 65.674 L 458.398 8.252 L 442.285 8.252 L 442.285 25.098 L 432.227 25.098 L 432.227 12.402 A 16.227 16.227 0 0 1 432.636 8.708 A 14.548 14.548 0 0 1 432.959 7.544 A 14.373 14.373 0 0 1 434.018 5.054 A 11.981 11.981 0 0 1 434.961 3.589 A 10.065 10.065 0 0 1 436.854 1.656 A 8.973 8.973 0 0 1 437.915 0.952 A 7.271 7.271 0 0 1 441.553 0 L 470.02 0 L 470.02 61.719 A 15.676 15.676 0 0 1 469.554 65.579 A 14.304 14.304 0 0 1 469.287 66.504 A 14.065 14.065 0 0 1 468.228 68.965 A 11.735 11.735 0 0 1 467.285 70.41 A 10.336 10.336 0 0 1 465.147 72.516 A 9.498 9.498 0 0 1 464.331 73.047 A 7.042 7.042 0 0 1 460.742 74.024 L 442.92 74.024 Z" id="l6"/>
<path d="M 492.725 74.024 L 492.725 46.485 L 481.836 46.485 A 8.825 8.825 0 0 1 482.739 43.262 Q 483.496 41.748 484.644 40.601 A 8.738 8.738 0 0 1 487.256 38.794 A 7.527 7.527 0 0 1 490.381 38.135 L 492.725 38.135 L 492.725 0 L 525.83 0 A 7.962 7.962 0 0 1 529.59 0.952 A 10.347 10.347 0 0 1 532.524 3.28 A 11.914 11.914 0 0 1 532.788 3.589 A 12.857 12.857 0 0 1 534.59 6.512 A 15.257 15.257 0 0 1 535.01 7.544 A 13.89 13.89 0 0 1 535.833 11.92 A 15.866 15.866 0 0 1 535.84 12.402 L 535.84 30.615 A 13.635 13.635 0 0 1 534.609 36.399 A 13.358 13.358 0 0 1 534.229 37.158 A 12.229 12.229 0 0 1 529.637 41.887 A 14.454 14.454 0 0 1 529.541 41.944 Q 531.689 42.725 533.252 44.141 A 13.846 13.846 0 0 1 535.71 47.053 A 13.013 13.013 0 0 1 535.84 47.266 Q 536.865 48.975 537.354 50.83 A 15.241 15.241 0 0 1 537.748 52.856 A 12.264 12.264 0 0 1 537.842 54.346 L 537.793 65.625 L 550.635 65.625 Q 550.439 67.383 549.683 68.897 Q 548.926 70.41 547.778 71.558 A 8.738 8.738 0 0 1 545.166 73.364 A 7.413 7.413 0 0 1 542.09 74.024 L 535.352 74.024 A 7.042 7.042 0 0 1 531.763 73.047 Q 530.078 72.07 528.809 70.41 A 12.306 12.306 0 0 1 527.289 67.786 A 15.017 15.017 0 0 1 526.807 66.504 A 15.12 15.12 0 0 1 526.086 62.349 A 17.236 17.236 0 0 1 526.074 61.719 L 526.074 46.485 L 504.297 46.485 L 504.248 74.024 L 492.725 74.024 Z M 504.297 38.135 L 524.268 38.135 L 524.268 8.35 L 504.297 8.35 L 504.297 38.135 Z" id="l7"/>
<path d="M 570.41 65.674 L 584.766 65.674 L 584.766 8.252 L 563.086 8.252 L 563.086 24.121 L 551.416 24.121 L 551.416 12.402 A 16.227 16.227 0 0 1 551.826 8.708 A 14.548 14.548 0 0 1 552.148 7.544 A 14.373 14.373 0 0 1 553.208 5.054 A 11.981 11.981 0 0 1 554.15 3.589 A 10.292 10.292 0 0 1 555.937 1.731 A 8.987 8.987 0 0 1 557.08 0.952 A 7.047 7.047 0 0 1 560.645 0 L 606.494 0 L 606.494 8.252 L 596.387 8.252 L 596.387 61.67 A 15.676 15.676 0 0 1 595.922 65.531 A 14.304 14.304 0 0 1 595.654 66.455 A 14.26 14.26 0 0 1 594.529 69.043 A 12.09 12.09 0 0 1 593.652 70.386 A 10.557 10.557 0 0 1 591.818 72.292 A 9.318 9.318 0 0 1 590.723 73.047 A 6.912 6.912 0 0 1 587.158 74.024 L 561.865 74.024 Q 562.061 72.315 562.817 70.801 Q 563.574 69.287 564.722 68.14 A 8.738 8.738 0 0 1 567.334 66.333 A 7.413 7.413 0 0 1 570.41 65.674 Z" id="l8"/>
<path d="M 619.189 74.024 L 619.189 46.436 L 607.52 46.436 Q 607.715 44.678 608.472 43.164 A 9.775 9.775 0 0 1 610.34 40.563 A 9.33 9.33 0 0 1 610.376 40.527 A 8.967 8.967 0 0 1 612.988 38.745 A 7.413 7.413 0 0 1 616.064 38.086 L 619.189 38.086 L 619.189 0 L 630.811 0 L 630.811 38.086 L 657.129 38.086 L 657.129 0 L 668.848 0 L 668.848 74.024 L 657.129 74.024 L 657.129 46.436 L 630.811 46.436 L 630.811 74.024 L 619.189 74.024 Z" id="l9"/>
<path d="M 690.088 74.024 L 690.039 26.074 A 15.107 15.107 0 0 1 690.465 22.444 A 13.623 13.623 0 0 1 690.796 21.314 Q 691.553 19.092 692.847 17.407 A 10.432 10.432 0 0 1 694.921 15.352 A 9.481 9.481 0 0 1 695.85 14.746 A 7.262 7.262 0 0 1 699.512 13.77 L 701.709 13.77 L 701.709 65.674 L 724.316 65.674 L 724.316 8.252 L 680.566 8.252 A 8.825 8.825 0 0 1 681.47 5.029 A 9.775 9.775 0 0 1 683.338 2.428 A 9.33 9.33 0 0 1 683.374 2.393 A 8.586 8.586 0 0 1 685.986 0.635 Q 687.451 0 689.111 0 L 726.611 0 A 7.314 7.314 0 0 1 730.225 0.952 A 9.166 9.166 0 0 1 732.941 3.28 A 10.636 10.636 0 0 1 733.179 3.589 A 12.808 12.808 0 0 1 734.634 6.15 A 15.764 15.764 0 0 1 735.156 7.544 Q 735.889 9.815 735.889 12.402 L 735.889 61.719 A 15.676 15.676 0 0 1 735.424 65.579 A 14.304 14.304 0 0 1 735.156 66.504 A 14.52 14.52 0 0 1 734.122 68.935 A 11.976 11.976 0 0 1 733.179 70.41 A 9.954 9.954 0 0 1 730.878 72.648 A 9.316 9.316 0 0 1 730.249 73.047 A 7.042 7.042 0 0 1 726.66 74.024 L 690.088 74.024 Z" id="l10"/>
<path d="M 753.76 74.024 L 756.934 55.42 L 745.654 55.42 Q 745.85 53.711 746.606 52.197 Q 747.363 50.684 748.511 49.536 A 8.738 8.738 0 0 1 751.123 47.73 A 7.413 7.413 0 0 1 754.199 47.07 L 758.398 47.07 L 764.893 9.229 A 11.562 11.562 0 0 1 766.187 5.518 A 12.615 12.615 0 0 1 767.657 3.399 A 11.029 11.029 0 0 1 768.433 2.588 A 9.963 9.963 0 0 1 771.289 0.684 A 8.121 8.121 0 0 1 773.34 0.081 A 7.214 7.214 0 0 1 774.414 0 L 786.279 0 Q 787.793 0 789.355 0.684 Q 790.918 1.367 792.236 2.612 A 12.26 12.26 0 0 1 794.356 5.282 A 13.828 13.828 0 0 1 794.507 5.542 A 11.154 11.154 0 0 1 795.719 8.833 A 12.794 12.794 0 0 1 795.801 9.277 L 806.934 74.024 L 795.264 74.024 L 792.236 55.42 L 768.262 55.42 L 765.283 74.024 L 753.76 74.024 Z M 769.58 47.07 L 790.918 47.07 L 784.668 8.252 L 775.732 8.252 A 2087.923 2087.923 0 0 0 772.656 27.466 A 6716.588 6716.588 0 0 1 769.58 47.07 Z" id="l11"/>
<path d="M 832.617 65.674 L 856.055 65.674 L 856.055 43.848 L 841.211 52.832 A 7.02 7.02 0 0 1 840.156 53.39 Q 839.624 53.619 839 53.8 A 12.132 12.132 0 0 1 838.794 53.858 A 10.763 10.763 0 0 1 837.64 54.107 Q 837.013 54.205 836.445 54.205 A 6.335 6.335 0 0 1 836.182 54.199 L 830.664 54.199 A 7.53 7.53 0 0 1 826.953 53.223 A 10.286 10.286 0 0 1 823.898 50.612 A 11.629 11.629 0 0 1 823.877 50.586 A 12.549 12.549 0 0 1 822.259 47.897 A 15.152 15.152 0 0 1 821.777 46.68 A 14.34 14.34 0 0 1 821.001 42.29 A 16.286 16.286 0 0 1 820.996 41.895 L 820.996 8.35 L 810.645 8.35 Q 810.84 6.641 811.597 5.127 Q 812.354 3.613 813.55 2.466 Q 814.746 1.319 816.309 0.659 A 8.518 8.518 0 0 1 819.453 0.003 A 9.781 9.781 0 0 1 819.678 0 L 832.715 0 L 832.715 45.801 L 837.256 45.801 L 856.055 34.229 L 856.055 0 L 867.676 0 L 867.676 61.768 A 15.131 15.131 0 0 1 867.125 65.885 A 14.08 14.08 0 0 1 866.943 66.48 Q 866.211 68.701 864.966 70.386 A 9.712 9.712 0 0 1 862.639 72.654 A 9.13 9.13 0 0 1 862.012 73.047 A 7.173 7.173 0 0 1 858.398 74.024 L 824.072 74.024 Q 824.268 72.315 825.024 70.801 Q 825.781 69.287 826.929 68.14 A 8.738 8.738 0 0 1 829.541 66.333 A 7.413 7.413 0 0 1 832.617 65.674 Z" id="l12"/>
<path d="M 921.289 74.024 L 921.24 26.074 A 15.107 15.107 0 0 1 921.666 22.444 A 13.623 13.623 0 0 1 921.997 21.314 Q 922.754 19.092 924.048 17.407 A 10.432 10.432 0 0 1 926.122 15.352 A 9.481 9.481 0 0 1 927.051 14.746 A 7.262 7.262 0 0 1 930.713 13.77 L 932.91 13.77 L 932.91 65.674 L 955.518 65.674 L 955.518 8.252 L 911.768 8.252 A 8.825 8.825 0 0 1 912.671 5.029 A 9.775 9.775 0 0 1 914.539 2.428 A 9.33 9.33 0 0 1 914.575 2.393 A 8.586 8.586 0 0 1 917.187 0.635 Q 918.652 0 920.313 0 L 957.813 0 A 7.314 7.314 0 0 1 961.426 0.952 A 9.166 9.166 0 0 1 964.142 3.28 A 10.636 10.636 0 0 1 964.38 3.589 A 12.808 12.808 0 0 1 965.836 6.15 A 15.764 15.764 0 0 1 966.357 7.544 Q 967.09 9.815 967.09 12.402 L 967.09 61.719 A 15.676 15.676 0 0 1 966.625 65.579 A 14.304 14.304 0 0 1 966.357 66.504 A 14.52 14.52 0 0 1 965.323 68.935 A 11.976 11.976 0 0 1 964.38 70.41 A 9.954 9.954 0 0 1 962.079 72.648 A 9.316 9.316 0 0 1 961.45 73.047 A 7.042 7.042 0 0 1 957.861 74.024 L 921.289 74.024 Z" id="l13"/>
<path d="M 992.627 74.024 L 992.627 65.674 L 1008.105 65.674 L 1008.105 8.252 L 991.992 8.252 L 991.992 25.098 L 981.934 25.098 L 981.934 12.402 A 16.227 16.227 0 0 1 982.343 8.708 A 14.548 14.548 0 0 1 982.666 7.544 A 14.373 14.373 0 0 1 983.725 5.054 A 11.981 11.981 0 0 1 984.668 3.589 A 10.065 10.065 0 0 1 986.561 1.656 A 8.973 8.973 0 0 1 987.622 0.952 A 7.271 7.271 0 0 1 991.26 0 L 1019.727 0 L 1019.727 61.719 A 15.676 15.676 0 0 1 1019.261 65.579 A 14.304 14.304 0 0 1 1018.994 66.504 A 14.065 14.065 0 0 1 1017.935 68.965 A 11.735 11.735 0 0 1 1016.992 70.41 A 10.336 10.336 0 0 1 1014.854 72.516 A 9.498 9.498 0 0 1 1014.038 73.047 A 7.042 7.042 0 0 1 1010.449 74.024 L 992.627 74.024 Z" id="l14"/>
<path d="M 1038.77 74.024 L 1041.943 55.42 L 1030.664 55.42 Q 1030.859 53.711 1031.616 52.197 Q 1032.373 50.684 1033.521 49.536 A 8.738 8.738 0 0 1 1036.133 47.73 A 7.413 7.413 0 0 1 1039.209 47.07 L 1043.408 47.07 L 1049.902 9.229 A 11.562 11.562 0 0 1 1051.196 5.518 A 12.615 12.615 0 0 1 1052.667 3.399 A 11.029 11.029 0 0 1 1053.442 2.588 A 9.963 9.963 0 0 1 1056.299 0.684 A 8.121 8.121 0 0 1 1058.35 0.081 A 7.214 7.214 0 0 1 1059.424 0 L 1071.289 0 Q 1072.803 0 1074.365 0.684 Q 1075.928 1.367 1077.246 2.612 A 12.26 12.26 0 0 1 1079.366 5.282 A 13.828 13.828 0 0 1 1079.517 5.542 A 11.154 11.154 0 0 1 1080.728 8.833 A 12.794 12.794 0 0 1 1080.811 9.277 L 1091.943 74.024 L 1080.273 74.024 L 1077.246 55.42 L 1053.271 55.42 L 1050.293 74.024 L 1038.77 74.024 Z M 1054.59 47.07 L 1075.928 47.07 L 1069.678 8.252 L 1060.742 8.252 A 2087.923 2087.923 0 0 0 1057.666 27.466 A 6716.588 6716.588 0 0 1 1054.59 47.07 Z" id="l15"/>
<path d="M 1106.396 74.024 L 1106.396 0 L 1117.969 0 L 1117.969 17.92 L 1136.182 3.662 Q 1137.061 2.93 1137.939 2.271 A 14.53 14.53 0 0 1 1139.771 1.099 A 9.72 9.72 0 0 1 1141.772 0.293 A 7.981 7.981 0 0 1 1143.297 0.029 A 9.543 9.543 0 0 1 1144.043 0 Q 1145.947 0 1147.607 0.855 A 9.011 9.011 0 0 1 1150.425 3.14 A 10.327 10.327 0 0 1 1150.513 3.247 A 11.243 11.243 0 0 1 1152.104 5.917 A 13.391 13.391 0 0 1 1152.466 6.86 A 13.398 13.398 0 0 1 1153.149 10.442 A 15.596 15.596 0 0 1 1153.174 11.328 L 1153.174 65.625 L 1164.16 65.625 Q 1163.965 67.383 1163.208 68.897 Q 1162.451 70.41 1161.304 71.558 A 8.738 8.738 0 0 1 1158.691 73.364 A 7.413 7.413 0 0 1 1155.615 74.024 L 1150.342 74.024 A 6.912 6.912 0 0 1 1146.777 73.047 A 9.744 9.744 0 0 1 1144.19 70.815 A 11.305 11.305 0 0 1 1143.872 70.41 Q 1142.627 68.75 1141.919 66.504 A 15.577 15.577 0 0 1 1141.223 62.388 A 17.807 17.807 0 0 1 1141.211 61.719 L 1141.211 9.815 L 1117.969 27.93 L 1117.969 74.024 L 1106.396 74.024 Z" id="l16"/>
<path d="M 1177.344 61.719 L 1177.344 46.485 L 1166.357 46.485 A 8.951 8.951 0 0 1 1167.188 43.433 Q 1167.871 41.992 1168.97 40.943 A 8.962 8.962 0 0 1 1171.46 39.258 A 7.035 7.035 0 0 1 1174.414 38.623 L 1177.344 38.623 L 1177.344 12.402 A 16.795 16.795 0 0 1 1177.726 8.773 A 14.96 14.96 0 0 1 1178.052 7.544 A 14.322 14.322 0 0 1 1179.08 5.058 A 11.868 11.868 0 0 1 1180.005 3.589 Q 1181.25 1.904 1182.935 0.952 A 7.18 7.18 0 0 1 1186.523 0 L 1217.188 0 L 1217.188 8.252 L 1189.063 8.252 L 1189.063 38.623 L 1208.398 38.623 L 1208.398 46.485 L 1189.063 46.485 L 1189.063 65.674 L 1221.533 65.674 A 9.828 9.828 0 0 1 1220.581 68.921 A 9.799 9.799 0 0 1 1219.06 71.184 A 9.079 9.079 0 0 1 1218.677 71.582 A 8.967 8.967 0 0 1 1216.064 73.364 A 7.413 7.413 0 0 1 1212.988 74.024 L 1186.621 74.024 A 7.13 7.13 0 0 1 1182.983 73.047 A 9.713 9.713 0 0 1 1180.211 70.615 A 11.165 11.165 0 0 1 1180.054 70.41 A 12.536 12.536 0 0 1 1178.598 67.883 A 15.425 15.425 0 0 1 1178.076 66.504 A 15.12 15.12 0 0 1 1177.355 62.349 A 17.236 17.236 0 0 1 1177.344 61.719 Z" id="l17"/>
</g>
</svg>
