<svg xmlns="http://www.w3.org/2000/svg" width="512.91" height="29.746" viewBox="0 0 512.91 29.746"><g id="svgGroup" stroke-linecap="round" fill-rule="evenodd" font-size="9pt" stroke="#000" stroke-width="0.25mm" fill="none" style="stroke:#000;stroke-width:0.25mm;fill:none">

<path d="M 4.668 29.746 L 4.668 18.711 L 0 18.711 Q 0.078 18.008 0.381 17.402 Q 0.684 16.797 1.143 16.348 A 3.587 3.587 0 0 1 2.187 15.635 A 2.965 2.965 0 0 1 3.418 15.371 L 4.668 15.371 L 4.668 0.137 L 9.316 0.137 L 9.316 15.371 L 19.844 15.371 L 19.844 0.137 L 24.531 0.137 L 24.531 29.746 L 19.844 29.746 L 19.844 18.711 L 9.316 18.711 L 9.316 29.746 L 4.668 29.746 Z" id="l0" vector-effect="non-scaling-stroke"/><path d="M 31.406 29.746 L 32.676 22.305 L 28.164 22.305 Q 28.242 21.621 28.545 21.016 Q 28.848 20.41 29.307 19.951 Q 29.766 19.492 30.352 19.229 A 2.965 2.965 0 0 1 31.582 18.965 L 33.262 18.965 L 35.859 3.828 A 4.625 4.625 0 0 1 36.377 2.344 A 5.046 5.046 0 0 1 36.965 1.496 A 4.411 4.411 0 0 1 37.275 1.172 Q 37.793 0.684 38.418 0.41 A 3.248 3.248 0 0 1 39.238 0.169 A 2.885 2.885 0 0 1 39.668 0.137 L 44.414 0.137 A 2.9 2.9 0 0 1 45.295 0.278 A 3.557 3.557 0 0 1 45.645 0.41 A 3.993 3.993 0 0 1 46.731 1.12 A 4.52 4.52 0 0 1 46.797 1.182 A 4.904 4.904 0 0 1 47.645 2.249 A 5.532 5.532 0 0 1 47.705 2.354 A 4.462 4.462 0 0 1 48.19 3.67 A 5.118 5.118 0 0 1 48.223 3.848 L 52.676 29.746 L 48.008 29.746 L 46.797 22.305 L 37.207 22.305 L 36.016 29.746 L 31.406 29.746 Z M 37.734 18.965 L 46.27 18.965 L 43.77 3.438 L 40.195 3.438 A 835.168 835.168 0 0 0 38.965 11.123 A 2686.635 2686.635 0 0 1 37.734 18.965 Z" id="l1" vector-effect="non-scaling-stroke"/><path d="M 58.672 29.746 L 58.672 19.473 L 53.047 19.473 Q 53.125 18.789 53.428 18.184 Q 53.73 17.578 54.189 17.119 Q 54.648 16.66 55.234 16.397 A 2.965 2.965 0 0 1 56.465 16.133 L 58.652 16.133 L 58.652 0.137 L 73.203 0.137 Q 73.965 0.137 74.639 0.518 Q 75.313 0.898 75.82 1.572 A 5.014 5.014 0 0 1 76.417 2.61 A 6.116 6.116 0 0 1 76.621 3.154 A 6.166 6.166 0 0 1 76.907 4.773 A 7.111 7.111 0 0 1 76.914 5.098 L 76.914 14.551 A 6.447 6.447 0 0 1 76.788 15.846 A 5.579 5.579 0 0 1 76.621 16.475 A 5.666 5.666 0 0 1 76.144 17.549 A 4.887 4.887 0 0 1 75.82 18.037 A 4.026 4.026 0 0 1 75.063 18.81 A 3.589 3.589 0 0 1 74.639 19.092 Q 73.965 19.473 73.203 19.473 L 63.359 19.473 L 63.359 29.746 L 58.672 29.746 Z M 63.34 16.133 L 72.363 16.133 L 72.363 3.438 L 63.34 3.438 L 63.34 16.133 Z" id="l2" vector-effect="non-scaling-stroke"/><path d="M 84.16 29.746 L 84.16 19.473 L 78.535 19.473 Q 78.613 18.789 78.916 18.184 Q 79.219 17.578 79.678 17.119 Q 80.137 16.66 80.723 16.397 A 2.965 2.965 0 0 1 81.953 16.133 L 84.141 16.133 L 84.141 0.137 L 98.691 0.137 Q 99.453 0.137 100.127 0.518 Q 100.801 0.898 101.309 1.572 A 5.014 5.014 0 0 1 101.905 2.61 A 6.116 6.116 0 0 1 102.109 3.154 A 6.166 6.166 0 0 1 102.395 4.773 A 7.111 7.111 0 0 1 102.402 5.098 L 102.402 14.551 A 6.447 6.447 0 0 1 102.276 15.846 A 5.579 5.579 0 0 1 102.109 16.475 A 5.666 5.666 0 0 1 101.632 17.549 A 4.887 4.887 0 0 1 101.309 18.037 A 4.026 4.026 0 0 1 100.551 18.81 A 3.589 3.589 0 0 1 100.127 19.092 Q 99.453 19.473 98.691 19.473 L 88.848 19.473 L 88.848 29.746 L 84.16 29.746 Z M 88.828 16.133 L 97.852 16.133 L 97.852 3.438 L 88.828 3.438 L 88.828 16.133 Z" id="l3" vector-effect="non-scaling-stroke"/><path d="M 113.926 26.406 L 123.301 26.406 L 123.301 17.676 L 117.363 21.27 Q 117.001 21.505 116.479 21.657 A 4.852 4.852 0 0 1 116.396 21.68 A 4.305 4.305 0 0 1 115.935 21.779 Q 115.684 21.819 115.457 21.819 A 2.534 2.534 0 0 1 115.352 21.816 L 113.145 21.816 Q 112.363 21.816 111.66 21.426 A 4.115 4.115 0 0 1 110.438 20.381 A 4.636 4.636 0 0 1 110.43 20.371 A 5.02 5.02 0 0 1 109.783 19.295 A 6.061 6.061 0 0 1 109.59 18.809 A 5.736 5.736 0 0 1 109.279 17.053 A 6.513 6.513 0 0 1 109.277 16.895 L 109.277 3.477 L 105.137 3.477 Q 105.215 2.793 105.518 2.188 Q 105.82 1.582 106.299 1.123 A 3.601 3.601 0 0 1 107.402 0.4 A 3.407 3.407 0 0 1 108.66 0.138 A 3.912 3.912 0 0 1 108.75 0.137 L 113.965 0.137 L 113.965 18.457 L 115.781 18.457 L 123.301 13.828 L 123.301 0.137 L 127.949 0.137 L 127.949 24.844 A 6.052 6.052 0 0 1 127.729 26.491 A 5.632 5.632 0 0 1 127.656 26.729 Q 127.363 27.617 126.865 28.291 A 3.885 3.885 0 0 1 125.935 29.198 A 3.652 3.652 0 0 1 125.684 29.356 Q 125 29.746 124.238 29.746 L 110.508 29.746 Q 110.586 29.063 110.889 28.457 Q 111.191 27.852 111.65 27.393 Q 112.109 26.934 112.695 26.67 A 2.965 2.965 0 0 1 113.926 26.406 Z" id="l4" vector-effect="non-scaling-stroke"/><path d="M 138.613 13.477 L 142.109 10.469 L 137.422 10.02 A 3.383 3.383 0 0 1 136.465 9.756 Q 135.996 9.551 135.625 9.229 A 2.516 2.516 0 0 1 135.029 8.467 A 2.052 2.052 0 0 1 134.805 7.52 A 2.941 2.941 0 0 1 134.854 6.968 A 2.205 2.205 0 0 1 135.029 6.426 A 2.667 2.667 0 0 1 135.398 5.851 A 2.377 2.377 0 0 1 135.605 5.635 A 2.434 2.434 0 0 1 136.396 5.147 A 2.497 2.497 0 0 1 137.285 4.981 A 2.551 2.551 0 0 1 138.115 5.117 A 4.459 4.459 0 0 1 138.67 5.351 A 5.28 5.28 0 0 1 138.926 5.488 L 142.715 7.754 L 141.758 3.398 A 2.178 2.178 0 0 1 141.702 3.102 Q 141.68 2.922 141.68 2.715 A 3.188 3.188 0 0 1 141.836 1.738 A 2.722 2.722 0 0 1 142.305 0.859 A 2.334 2.334 0 0 1 143.076 0.234 Q 143.535 0 144.121 0 A 2.65 2.65 0 0 1 144.779 0.079 A 2.285 2.285 0 0 1 145.186 0.225 A 2.568 2.568 0 0 1 145.758 0.588 A 2.282 2.282 0 0 1 145.986 0.811 Q 146.309 1.172 146.484 1.66 A 2.976 2.976 0 0 1 146.66 2.676 Q 146.66 2.961 146.588 3.319 A 4.988 4.988 0 0 1 146.562 3.438 L 145.508 7.852 L 149.512 5.508 A 3.792 3.792 0 0 1 150.293 5.166 A 2.44 2.44 0 0 1 151.019 5.056 A 2.515 2.515 0 0 1 151.133 5.059 Q 151.563 5.059 152.002 5.205 A 2.33 2.33 0 0 1 152.793 5.654 A 2.226 2.226 0 0 1 153.247 6.198 A 2.715 2.715 0 0 1 153.369 6.426 Q 153.594 6.895 153.594 7.539 A 2.277 2.277 0 0 1 153.389 8.496 A 2.409 2.409 0 0 1 152.822 9.277 A 3.085 3.085 0 0 1 152.071 9.783 A 3.498 3.498 0 0 1 151.982 9.824 A 3.006 3.006 0 0 1 150.957 10.078 L 146.406 10.449 L 149.883 13.496 Q 150.371 13.926 150.664 14.551 A 3.11 3.11 0 0 1 150.914 15.322 A 2.704 2.704 0 0 1 150.957 15.801 A 2.091 2.091 0 0 1 150.868 16.394 A 2.573 2.573 0 0 1 150.781 16.641 Q 150.605 17.07 150.283 17.402 A 2.7 2.7 0 0 1 149.549 17.936 A 3.038 3.038 0 0 1 149.521 17.949 Q 149.082 18.164 148.555 18.164 A 2.507 2.507 0 0 1 147.041 17.656 A 3.117 3.117 0 0 1 146.018 16.361 A 3.707 3.707 0 0 1 145.996 16.309 L 144.258 12.148 L 142.422 16.367 A 3.001 3.001 0 0 1 142.002 17.07 Q 141.738 17.402 141.396 17.656 Q 141.055 17.91 140.664 18.047 A 2.407 2.407 0 0 1 139.863 18.184 A 2.154 2.154 0 0 1 139.151 18.068 A 2.005 2.005 0 0 1 138.896 17.959 Q 138.457 17.734 138.145 17.373 A 2.679 2.679 0 0 1 137.666 16.582 Q 137.5 16.152 137.5 15.742 A 2.752 2.752 0 0 1 137.783 14.531 A 3.141 3.141 0 0 1 138.387 13.687 A 3.772 3.772 0 0 1 138.613 13.477 Z" id="l5" vector-effect="non-scaling-stroke"/><path d="M 161.25 29.746 L 161.25 18.711 L 156.328 18.711 A 3.678 3.678 0 0 1 156.68 17.402 Q 156.973 16.797 157.432 16.348 Q 157.891 15.898 158.486 15.635 A 3.078 3.078 0 0 1 159.746 15.371 L 161.25 15.371 L 161.25 0.137 L 174.961 0.137 A 3.185 3.185 0 0 1 176.465 0.518 A 4.139 4.139 0 0 1 177.638 1.449 A 4.766 4.766 0 0 1 177.744 1.572 A 5.287 5.287 0 0 1 178.458 2.715 A 6.293 6.293 0 0 1 178.643 3.154 A 5.425 5.425 0 0 1 178.982 4.937 A 6.183 6.183 0 0 1 178.984 5.098 L 178.984 12.402 A 5.454 5.454 0 0 1 178.492 14.716 A 5.343 5.343 0 0 1 178.34 15.02 Q 177.695 16.211 176.465 16.934 A 4.607 4.607 0 0 1 177.568 17.506 A 4.15 4.15 0 0 1 177.949 17.813 A 5.36 5.36 0 0 1 178.871 18.893 A 4.979 4.979 0 0 1 178.975 19.063 A 5.662 5.662 0 0 1 179.57 20.488 A 6.096 6.096 0 0 1 179.728 21.299 A 4.906 4.906 0 0 1 179.766 21.895 L 179.766 24.824 A 6.271 6.271 0 0 1 179.58 26.368 A 5.721 5.721 0 0 1 179.473 26.738 A 5.448 5.448 0 0 1 179.032 27.746 A 4.602 4.602 0 0 1 178.662 28.301 Q 178.145 28.965 177.471 29.356 Q 176.797 29.746 176.035 29.746 L 161.25 29.746 Z M 165.879 15.371 L 174.355 15.371 L 174.355 3.477 L 165.879 3.477 L 165.879 15.371 Z M 165.879 26.406 L 175.098 26.406 L 175.098 18.711 L 165.879 18.711 L 165.879 26.406 Z" id="l6" vector-effect="non-scaling-stroke"/><path d="M 189.316 29.746 L 189.316 26.406 L 195.508 26.406 L 195.508 3.438 L 189.063 3.438 L 189.063 10.176 L 185.039 10.176 L 185.039 5.098 A 6.491 6.491 0 0 1 185.203 3.62 A 5.819 5.819 0 0 1 185.332 3.154 A 5.749 5.749 0 0 1 185.756 2.158 A 4.793 4.793 0 0 1 186.133 1.572 A 4.026 4.026 0 0 1 186.89 0.799 A 3.589 3.589 0 0 1 187.314 0.518 Q 187.988 0.137 188.77 0.137 L 200.156 0.137 L 200.156 24.824 A 6.271 6.271 0 0 1 199.97 26.368 A 5.721 5.721 0 0 1 199.863 26.738 A 5.626 5.626 0 0 1 199.44 27.723 A 4.694 4.694 0 0 1 199.062 28.301 A 4.134 4.134 0 0 1 198.207 29.143 A 3.799 3.799 0 0 1 197.881 29.356 Q 197.207 29.746 196.445 29.746 L 189.316 29.746 Z" id="l7" vector-effect="non-scaling-stroke"/><path d="M 209.238 29.746 L 209.238 18.731 L 204.883 18.731 A 3.53 3.53 0 0 1 205.244 17.441 Q 205.547 16.836 206.006 16.377 Q 206.465 15.918 207.051 15.654 A 3.011 3.011 0 0 1 208.301 15.391 L 209.238 15.391 L 209.238 0.137 L 222.48 0.137 A 3.185 3.185 0 0 1 223.984 0.518 A 4.139 4.139 0 0 1 225.158 1.449 A 4.766 4.766 0 0 1 225.264 1.572 A 5.143 5.143 0 0 1 225.984 2.741 A 6.103 6.103 0 0 1 226.152 3.154 A 5.556 5.556 0 0 1 226.481 4.905 A 6.347 6.347 0 0 1 226.484 5.098 L 226.484 12.383 A 5.454 5.454 0 0 1 225.992 14.696 A 5.343 5.343 0 0 1 225.84 15 Q 225.195 16.191 223.965 16.914 A 4.607 4.607 0 0 1 225.068 17.487 A 4.15 4.15 0 0 1 225.449 17.793 A 5.538 5.538 0 0 1 226.432 18.958 A 5.205 5.205 0 0 1 226.484 19.043 A 5.464 5.464 0 0 1 227.09 20.469 A 6.096 6.096 0 0 1 227.248 21.279 A 4.906 4.906 0 0 1 227.285 21.875 L 227.266 26.387 L 232.402 26.387 Q 232.324 27.09 232.021 27.695 Q 231.719 28.301 231.26 28.76 Q 230.801 29.219 230.215 29.482 A 2.965 2.965 0 0 1 228.984 29.746 L 226.289 29.746 Q 225.527 29.746 224.854 29.356 A 3.978 3.978 0 0 1 223.773 28.428 A 4.597 4.597 0 0 1 223.672 28.301 A 4.922 4.922 0 0 1 223.064 27.251 A 6.007 6.007 0 0 1 222.871 26.738 A 6.048 6.048 0 0 1 222.583 25.076 A 6.894 6.894 0 0 1 222.578 24.824 L 222.578 18.731 L 213.867 18.731 L 213.848 29.746 L 209.238 29.746 Z M 213.867 15.391 L 221.855 15.391 L 221.855 3.477 L 213.867 3.477 L 213.867 15.391 Z" id="l8" vector-effect="non-scaling-stroke"/><path d="M 240.313 26.406 L 246.055 26.406 L 246.055 3.438 L 237.383 3.438 L 237.383 9.785 L 232.715 9.785 L 232.715 5.098 A 6.491 6.491 0 0 1 232.879 3.62 A 5.819 5.819 0 0 1 233.008 3.154 A 5.749 5.749 0 0 1 233.431 2.158 A 4.793 4.793 0 0 1 233.809 1.572 A 4.117 4.117 0 0 1 234.523 0.829 A 3.595 3.595 0 0 1 234.98 0.518 Q 235.645 0.137 236.406 0.137 L 254.746 0.137 L 254.746 3.438 L 250.703 3.438 L 250.703 24.805 A 6.271 6.271 0 0 1 250.517 26.349 A 5.721 5.721 0 0 1 250.41 26.719 A 5.704 5.704 0 0 1 249.96 27.754 A 4.836 4.836 0 0 1 249.609 28.291 A 4.223 4.223 0 0 1 248.876 29.053 A 3.727 3.727 0 0 1 248.437 29.356 Q 247.773 29.746 247.012 29.746 L 236.895 29.746 Q 236.973 29.063 237.275 28.457 Q 237.578 27.852 238.037 27.393 Q 238.496 26.934 239.082 26.67 A 2.965 2.965 0 0 1 240.312 26.406 Z" id="l9" vector-effect="non-scaling-stroke"/><path d="M 259.824 29.746 L 259.824 18.711 L 255.156 18.711 Q 255.234 18.008 255.537 17.402 Q 255.84 16.797 256.299 16.348 A 3.587 3.587 0 0 1 257.344 15.635 A 2.965 2.965 0 0 1 258.574 15.371 L 259.824 15.371 L 259.824 0.137 L 264.473 0.137 L 264.473 15.371 L 275 15.371 L 275 0.137 L 279.688 0.137 L 279.688 29.746 L 275 29.746 L 275 18.711 L 264.473 18.711 L 264.473 29.746 L 259.824 29.746 Z" id="l10" vector-effect="non-scaling-stroke"/><path d="M 288.184 29.746 L 288.164 10.566 A 6.043 6.043 0 0 1 288.334 9.114 A 5.449 5.449 0 0 1 288.467 8.662 A 5.696 5.696 0 0 1 288.957 7.588 A 4.94 4.94 0 0 1 289.287 7.1 A 4.173 4.173 0 0 1 290.117 6.277 A 3.792 3.792 0 0 1 290.488 6.035 Q 291.172 5.645 291.953 5.645 L 292.832 5.645 L 292.832 26.406 L 301.875 26.406 L 301.875 3.438 L 284.375 3.438 A 3.53 3.53 0 0 1 284.736 2.148 Q 285.039 1.543 285.498 1.094 A 3.434 3.434 0 0 1 286.543 0.391 Q 287.129 0.137 287.793 0.137 L 302.793 0.137 Q 303.555 0.137 304.238 0.518 A 3.666 3.666 0 0 1 305.325 1.449 A 4.254 4.254 0 0 1 305.42 1.572 A 5.123 5.123 0 0 1 306.002 2.597 A 6.306 6.306 0 0 1 306.211 3.154 A 6.166 6.166 0 0 1 306.497 4.773 A 7.111 7.111 0 0 1 306.504 5.098 L 306.504 24.824 A 6.271 6.271 0 0 1 306.318 26.368 A 5.721 5.721 0 0 1 306.211 26.738 A 5.808 5.808 0 0 1 305.797 27.711 A 4.79 4.79 0 0 1 305.42 28.301 A 3.982 3.982 0 0 1 304.5 29.196 A 3.726 3.726 0 0 1 304.248 29.356 Q 303.574 29.746 302.813 29.746 L 288.184 29.746 Z" id="l11" vector-effect="non-scaling-stroke"/><path d="M 313.652 29.746 L 314.922 22.305 L 310.41 22.305 Q 310.488 21.621 310.791 21.016 Q 311.094 20.41 311.553 19.951 Q 312.012 19.492 312.598 19.229 A 2.965 2.965 0 0 1 313.828 18.965 L 315.508 18.965 L 318.105 3.828 A 4.625 4.625 0 0 1 318.623 2.344 A 5.046 5.046 0 0 1 319.211 1.496 A 4.411 4.411 0 0 1 319.521 1.172 Q 320.039 0.684 320.664 0.41 A 3.248 3.248 0 0 1 321.484 0.169 A 2.885 2.885 0 0 1 321.914 0.137 L 326.66 0.137 A 2.9 2.9 0 0 1 327.541 0.278 A 3.557 3.557 0 0 1 327.891 0.41 A 3.993 3.993 0 0 1 328.977 1.12 A 4.52 4.52 0 0 1 329.043 1.182 A 4.904 4.904 0 0 1 329.891 2.249 A 5.532 5.532 0 0 1 329.951 2.354 A 4.462 4.462 0 0 1 330.436 3.67 A 5.118 5.118 0 0 1 330.469 3.848 L 334.922 29.746 L 330.254 29.746 L 329.043 22.305 L 319.453 22.305 L 318.262 29.746 L 313.652 29.746 Z M 319.98 18.965 L 328.516 18.965 L 326.016 3.438 L 322.441 3.438 A 835.168 835.168 0 0 0 321.211 11.123 A 2686.635 2686.635 0 0 1 319.98 18.965 Z" id="l12" vector-effect="non-scaling-stroke"/><path d="M 345.195 26.406 L 354.57 26.406 L 354.57 17.676 L 348.633 21.27 Q 348.271 21.505 347.749 21.657 A 4.852 4.852 0 0 1 347.666 21.68 A 4.305 4.305 0 0 1 347.205 21.779 Q 346.954 21.819 346.727 21.819 A 2.534 2.534 0 0 1 346.621 21.816 L 344.414 21.816 Q 343.633 21.816 342.93 21.426 A 4.115 4.115 0 0 1 341.707 20.381 A 4.636 4.636 0 0 1 341.699 20.371 A 5.02 5.02 0 0 1 341.052 19.295 A 6.061 6.061 0 0 1 340.859 18.809 A 5.736 5.736 0 0 1 340.549 17.053 A 6.513 6.513 0 0 1 340.547 16.895 L 340.547 3.477 L 336.406 3.477 Q 336.484 2.793 336.787 2.188 Q 337.09 1.582 337.568 1.123 A 3.601 3.601 0 0 1 338.672 0.4 A 3.407 3.407 0 0 1 339.93 0.138 A 3.912 3.912 0 0 1 340.02 0.137 L 345.234 0.137 L 345.234 18.457 L 347.051 18.457 L 354.57 13.828 L 354.57 0.137 L 359.219 0.137 L 359.219 24.844 A 6.052 6.052 0 0 1 358.998 26.491 A 5.632 5.632 0 0 1 358.926 26.729 Q 358.633 27.617 358.135 28.291 A 3.885 3.885 0 0 1 357.204 29.198 A 3.652 3.652 0 0 1 356.953 29.356 Q 356.27 29.746 355.508 29.746 L 341.777 29.746 Q 341.855 29.063 342.158 28.457 Q 342.461 27.852 342.92 27.393 Q 343.379 26.934 343.965 26.67 A 2.965 2.965 0 0 1 345.195 26.406 Z" id="l13" vector-effect="non-scaling-stroke"/><path d="M 369.883 13.477 L 373.379 10.469 L 368.691 10.02 A 3.383 3.383 0 0 1 367.734 9.756 Q 367.266 9.551 366.895 9.229 A 2.516 2.516 0 0 1 366.299 8.467 A 2.052 2.052 0 0 1 366.074 7.52 A 2.941 2.941 0 0 1 366.124 6.968 A 2.205 2.205 0 0 1 366.299 6.426 A 2.667 2.667 0 0 1 366.668 5.851 A 2.377 2.377 0 0 1 366.875 5.635 A 2.434 2.434 0 0 1 367.666 5.147 A 2.497 2.497 0 0 1 368.555 4.981 A 2.551 2.551 0 0 1 369.385 5.117 A 4.459 4.459 0 0 1 369.94 5.351 A 5.28 5.28 0 0 1 370.195 5.488 L 373.984 7.754 L 373.027 3.398 A 2.178 2.178 0 0 1 372.971 3.102 Q 372.949 2.922 372.949 2.715 A 3.188 3.188 0 0 1 373.105 1.738 A 2.722 2.722 0 0 1 373.574 0.859 A 2.334 2.334 0 0 1 374.346 0.234 Q 374.805 0 375.391 0 A 2.65 2.65 0 0 1 376.049 0.079 A 2.285 2.285 0 0 1 376.455 0.225 A 2.568 2.568 0 0 1 377.028 0.588 A 2.282 2.282 0 0 1 377.256 0.811 Q 377.578 1.172 377.754 1.66 A 2.976 2.976 0 0 1 377.93 2.676 Q 377.93 2.961 377.858 3.319 A 4.988 4.988 0 0 1 377.832 3.438 L 376.777 7.852 L 380.781 5.508 A 3.792 3.792 0 0 1 381.563 5.166 A 2.44 2.44 0 0 1 382.288 5.056 A 2.515 2.515 0 0 1 382.402 5.059 Q 382.832 5.059 383.271 5.205 A 2.33 2.33 0 0 1 384.063 5.654 A 2.226 2.226 0 0 1 384.516 6.198 A 2.715 2.715 0 0 1 384.639 6.426 Q 384.863 6.895 384.863 7.539 A 2.277 2.277 0 0 1 384.658 8.496 A 2.409 2.409 0 0 1 384.092 9.277 A 3.085 3.085 0 0 1 383.341 9.783 A 3.498 3.498 0 0 1 383.252 9.824 A 3.006 3.006 0 0 1 382.227 10.078 L 377.676 10.449 L 381.152 13.496 Q 381.641 13.926 381.934 14.551 A 3.11 3.11 0 0 1 382.184 15.322 A 2.704 2.704 0 0 1 382.227 15.801 A 2.091 2.091 0 0 1 382.138 16.394 A 2.573 2.573 0 0 1 382.051 16.641 Q 381.875 17.07 381.553 17.402 A 2.7 2.7 0 0 1 380.818 17.936 A 3.038 3.038 0 0 1 380.791 17.949 Q 380.352 18.164 379.824 18.164 A 2.507 2.507 0 0 1 378.311 17.656 A 3.117 3.117 0 0 1 377.288 16.361 A 3.707 3.707 0 0 1 377.266 16.309 L 375.527 12.148 L 373.691 16.367 A 3.001 3.001 0 0 1 373.271 17.07 Q 373.008 17.402 372.666 17.656 Q 372.324 17.91 371.934 18.047 A 2.407 2.407 0 0 1 371.133 18.184 A 2.154 2.154 0 0 1 370.42 18.068 A 2.005 2.005 0 0 1 370.166 17.959 Q 369.727 17.734 369.414 17.373 A 2.679 2.679 0 0 1 368.936 16.582 Q 368.77 16.152 368.77 15.742 A 2.752 2.752 0 0 1 369.053 14.531 A 3.141 3.141 0 0 1 369.656 13.687 A 3.772 3.772 0 0 1 369.883 13.477 Z" id="l14" vector-effect="non-scaling-stroke"/><path d="M 392.813 29.746 L 392.793 10.566 A 6.043 6.043 0 0 1 392.963 9.114 A 5.449 5.449 0 0 1 393.096 8.662 A 5.696 5.696 0 0 1 393.586 7.588 A 4.94 4.94 0 0 1 393.916 7.1 A 4.173 4.173 0 0 1 394.746 6.277 A 3.792 3.792 0 0 1 395.117 6.035 Q 395.801 5.645 396.582 5.645 L 397.461 5.645 L 397.461 26.406 L 406.504 26.406 L 406.504 3.438 L 389.004 3.438 A 3.53 3.53 0 0 1 389.365 2.148 Q 389.668 1.543 390.127 1.094 A 3.434 3.434 0 0 1 391.172 0.391 Q 391.758 0.137 392.422 0.137 L 407.422 0.137 Q 408.184 0.137 408.867 0.518 A 3.666 3.666 0 0 1 409.954 1.449 A 4.254 4.254 0 0 1 410.049 1.572 A 5.123 5.123 0 0 1 410.631 2.597 A 6.306 6.306 0 0 1 410.84 3.154 A 6.166 6.166 0 0 1 411.125 4.773 A 7.111 7.111 0 0 1 411.133 5.098 L 411.133 24.824 A 6.271 6.271 0 0 1 410.947 26.368 A 5.721 5.721 0 0 1 410.84 26.738 A 5.808 5.808 0 0 1 410.426 27.711 A 4.79 4.79 0 0 1 410.049 28.301 A 3.982 3.982 0 0 1 409.128 29.196 A 3.726 3.726 0 0 1 408.877 29.356 Q 408.203 29.746 407.441 29.746 L 392.813 29.746 Z" id="l15" vector-effect="non-scaling-stroke"/><path d="M 421.348 29.746 L 421.348 26.406 L 427.539 26.406 L 427.539 3.438 L 421.094 3.438 L 421.094 10.176 L 417.07 10.176 L 417.07 5.098 A 6.491 6.491 0 0 1 417.234 3.62 A 5.819 5.819 0 0 1 417.363 3.154 A 5.749 5.749 0 0 1 417.787 2.158 A 4.793 4.793 0 0 1 418.164 1.572 A 4.026 4.026 0 0 1 418.921 0.799 A 3.589 3.589 0 0 1 419.346 0.518 Q 420.02 0.137 420.801 0.137 L 432.188 0.137 L 432.188 24.824 A 6.271 6.271 0 0 1 432.001 26.368 A 5.721 5.721 0 0 1 431.895 26.738 A 5.626 5.626 0 0 1 431.471 27.723 A 4.694 4.694 0 0 1 431.094 28.301 A 4.134 4.134 0 0 1 430.239 29.143 A 3.799 3.799 0 0 1 429.912 29.356 Q 429.238 29.746 428.477 29.746 L 421.348 29.746 Z" id="l16" vector-effect="non-scaling-stroke"/><path d="M 439.805 29.746 L 441.074 22.305 L 436.563 22.305 Q 436.641 21.621 436.943 21.016 Q 437.246 20.41 437.705 19.951 Q 438.164 19.492 438.75 19.229 A 2.965 2.965 0 0 1 439.98 18.965 L 441.66 18.965 L 444.258 3.828 A 4.625 4.625 0 0 1 444.775 2.344 A 5.046 5.046 0 0 1 445.364 1.496 A 4.411 4.411 0 0 1 445.674 1.172 Q 446.191 0.684 446.816 0.41 A 3.248 3.248 0 0 1 447.637 0.169 A 2.885 2.885 0 0 1 448.066 0.137 L 452.813 0.137 A 2.9 2.9 0 0 1 453.693 0.278 A 3.557 3.557 0 0 1 454.043 0.41 A 3.993 3.993 0 0 1 455.129 1.12 A 4.52 4.52 0 0 1 455.195 1.182 A 4.904 4.904 0 0 1 456.043 2.249 A 5.532 5.532 0 0 1 456.104 2.354 A 4.462 4.462 0 0 1 456.588 3.67 A 5.118 5.118 0 0 1 456.621 3.848 L 461.074 29.746 L 456.406 29.746 L 455.195 22.305 L 445.605 22.305 L 444.414 29.746 L 439.805 29.746 Z M 446.133 18.965 L 454.668 18.965 L 452.168 3.438 L 448.594 3.438 A 835.168 835.168 0 0 0 447.363 11.123 A 2686.635 2686.635 0 0 1 446.133 18.965 Z" id="l17" vector-effect="non-scaling-stroke"/><path d="M 466.855 29.746 L 466.855 0.137 L 471.484 0.137 L 471.484 7.305 L 478.77 1.602 A 17.507 17.507 0 0 1 479.473 1.045 A 5.812 5.812 0 0 1 480.205 0.576 Q 480.586 0.371 481.006 0.254 A 3.192 3.192 0 0 1 481.616 0.148 A 3.817 3.817 0 0 1 481.914 0.137 Q 482.676 0.137 483.34 0.479 A 3.604 3.604 0 0 1 484.467 1.393 A 4.132 4.132 0 0 1 484.502 1.436 Q 485 2.051 485.283 2.881 A 5.359 5.359 0 0 1 485.556 4.314 A 6.238 6.238 0 0 1 485.566 4.668 L 485.566 26.387 L 489.961 26.387 Q 489.883 27.09 489.58 27.695 Q 489.277 28.301 488.818 28.76 Q 488.359 29.219 487.773 29.482 A 2.965 2.965 0 0 1 486.543 29.746 L 484.434 29.746 Q 483.672 29.746 483.008 29.356 A 3.897 3.897 0 0 1 481.973 28.463 A 4.522 4.522 0 0 1 481.846 28.301 A 4.869 4.869 0 0 1 481.262 27.277 A 5.971 5.971 0 0 1 481.064 26.738 A 6.231 6.231 0 0 1 480.786 25.092 A 7.122 7.122 0 0 1 480.781 24.824 L 480.781 4.063 L 471.484 11.309 L 471.484 29.746 L 466.855 29.746 Z" id="l18" vector-effect="non-scaling-stroke"/><path d="M 495.234 24.824 L 495.234 18.731 L 490.84 18.731 A 3.58 3.58 0 0 1 491.172 17.51 Q 491.445 16.934 491.885 16.514 A 3.585 3.585 0 0 1 492.881 15.84 Q 493.438 15.586 494.063 15.586 L 495.234 15.586 L 495.234 5.098 A 6.718 6.718 0 0 1 495.387 3.646 A 5.984 5.984 0 0 1 495.518 3.154 A 5.729 5.729 0 0 1 495.929 2.16 A 4.747 4.747 0 0 1 496.299 1.572 A 3.895 3.895 0 0 1 497.067 0.784 A 3.519 3.519 0 0 1 497.471 0.518 Q 498.145 0.137 498.906 0.137 L 511.172 0.137 L 511.172 3.438 L 499.922 3.438 L 499.922 15.586 L 507.656 15.586 L 507.656 18.731 L 499.922 18.731 L 499.922 26.406 L 512.91 26.406 Q 512.832 27.09 512.529 27.705 A 3.92 3.92 0 0 1 511.921 28.61 A 3.632 3.632 0 0 1 511.768 28.77 A 3.587 3.587 0 0 1 510.723 29.482 A 2.965 2.965 0 0 1 509.492 29.746 L 498.945 29.746 A 2.852 2.852 0 0 1 497.49 29.356 A 3.885 3.885 0 0 1 496.381 28.383 A 4.467 4.467 0 0 1 496.318 28.301 A 5.014 5.014 0 0 1 495.736 27.29 A 6.17 6.17 0 0 1 495.527 26.738 A 6.048 6.048 0 0 1 495.239 25.076 A 6.894 6.894 0 0 1 495.234 24.824 Z" id="l19" vector-effect="non-scaling-stroke"/>

</g></svg>
